<svg xmlns="http://www.w3.org/2000/svg" viewBox="0 0 160 40" fill="none">
  <!-- Icon mark: stylized A with lightning bolt -->
  <rect x="0" y="4" width="32" height="32" rx="8" fill="#1a56ff"/>
  <!-- A shape -->
  <path d="M16 9 L24 28 H20.5 L18.8 23.5 H13.2 L11.5 28 H8 Z M16 14 L14.2 20.5 H17.8 Z" fill="white"/>
  <!-- Lightning accent -->
  <path d="M20 9 L17 17 H20 L16 28 L23 16 H20 Z" fill="rgba(255,255,255,0.25)"/>

  <!-- Wordmark -->
  <!-- A -->
  <path d="M44 28 L49.5 12 H52.5 L58 28 H55 L53.6 23.8 H48.4 L47 28 Z M49.2 21.2 H52.8 L51 15.5 Z" fill="#0d0d0d"/>
  <!-- u -->
  <path d="M60 18 H62.8 V24.2 C62.8 25.2 63.4 25.8 64.4 25.8 C65.4 25.8 66 25.2 66 24.2 V18 H68.8 V28 H66.2 V26.8 C65.6 27.6 64.7 28.2 63.4 28.2 C61.4 28.2 60 26.8 60 24.6 Z" fill="#0d0d0d"/>
  <!-- x -->
  <path d="M71 18 H74.2 L76.5 21.6 L78.8 18 H82 L78.2 23 L82.2 28 H79 L76.5 24.2 L74 28 H70.8 L74.8 23 Z" fill="#0d0d0d"/>
  <!-- o -->
  <path d="M83.5 23 C83.5 20.2 85.6 17.8 88.8 17.8 C92 17.8 94.1 20.2 94.1 23 C94.1 25.8 92 28.2 88.8 28.2 C85.6 28.2 83.5 25.8 83.5 23 Z M91.3 23 C91.3 21.5 90.2 20.3 88.8 20.3 C87.4 20.3 86.3 21.5 86.3 23 C86.3 24.5 87.4 25.7 88.8 25.7 C90.2 25.7 91.3 24.5 91.3 23 Z" fill="#0d0d0d"/>
</svg>
